<svg xmlns="http://www.w3.org/2000/svg" viewBox="0 0 800 950" width="800" height="950">
  <defs>
    <radialGradient id="g" cx="50%" cy="40%" r="70%">
      <stop offset="0%" stop-color="#7a1d1d" stop-opacity="0.18"/>
      <stop offset="60%" stop-color="#0b0a08" stop-opacity="1"/>
      <stop offset="100%" stop-color="#000" stop-opacity="1"/>
    </radialGradient>
  </defs>
  <rect width="800" height="950" fill="url(#g)"/>
  <line x1="80" y1="135.71428571428572" x2="720" y2="135.71428571428572" stroke="#e7dfcf" stroke-opacity="0.06" stroke-width="0.5"/><line x1="80" y1="271.42857142857144" x2="720" y2="271.42857142857144" stroke="#e7dfcf" stroke-opacity="0.06" stroke-width="0.5"/><line x1="80" y1="407.14285714285717" x2="720" y2="407.14285714285717" stroke="#e7dfcf" stroke-opacity="0.06" stroke-width="0.5"/><line x1="80" y1="542.8571428571429" x2="720" y2="542.8571428571429" stroke="#e7dfcf" stroke-opacity="0.06" stroke-width="0.5"/><line x1="80" y1="678.5714285714287" x2="720" y2="678.5714285714287" stroke="#e7dfcf" stroke-opacity="0.06" stroke-width="0.5"/><line x1="80" y1="814.2857142857143" x2="720" y2="814.2857142857143" stroke="#e7dfcf" stroke-opacity="0.06" stroke-width="0.5"/>
  <circle cx="0" cy="0" r="0.3" fill="#e7dfcf" opacity="0.04"/><circle cx="97" cy="53" r="1.3" fill="#e7dfcf" opacity="0.05"/><circle cx="194" cy="106" r="2.3" fill="#e7dfcf" opacity="0.06"/><circle cx="291" cy="159" r="0.3" fill="#e7dfcf" opacity="0.07"/><circle cx="388" cy="212" r="1.3" fill="#e7dfcf" opacity="0.08"/><circle cx="485" cy="265" r="2.3" fill="#e7dfcf" opacity="0.04"/><circle cx="582" cy="318" r="0.3" fill="#e7dfcf" opacity="0.05"/><circle cx="679" cy="371" r="1.3" fill="#e7dfcf" opacity="0.06"/><circle cx="776" cy="424" r="2.3" fill="#e7dfcf" opacity="0.07"/><circle cx="73" cy="477" r="0.3" fill="#e7dfcf" opacity="0.08"/><circle cx="170" cy="530" r="1.3" fill="#e7dfcf" opacity="0.04"/><circle cx="267" cy="583" r="2.3" fill="#e7dfcf" opacity="0.05"/><circle cx="364" cy="636" r="0.3" fill="#e7dfcf" opacity="0.06"/><circle cx="461" cy="689" r="1.3" fill="#e7dfcf" opacity="0.07"/><circle cx="558" cy="742" r="2.3" fill="#e7dfcf" opacity="0.08"/><circle cx="655" cy="795" r="0.3" fill="#e7dfcf" opacity="0.04"/><circle cx="752" cy="848" r="1.3" fill="#e7dfcf" opacity="0.05"/><circle cx="49" cy="901" r="2.3" fill="#e7dfcf" opacity="0.06"/><circle cx="146" cy="4" r="0.3" fill="#e7dfcf" opacity="0.07"/><circle cx="243" cy="57" r="1.3" fill="#e7dfcf" opacity="0.08"/><circle cx="340" cy="110" r="2.3" fill="#e7dfcf" opacity="0.04"/><circle cx="437" cy="163" r="0.3" fill="#e7dfcf" opacity="0.05"/><circle cx="534" cy="216" r="1.3" fill="#e7dfcf" opacity="0.06"/><circle cx="631" cy="269" r="2.3" fill="#e7dfcf" opacity="0.07"/><circle cx="728" cy="322" r="0.3" fill="#e7dfcf" opacity="0.08"/><circle cx="25" cy="375" r="1.3" fill="#e7dfcf" opacity="0.04"/><circle cx="122" cy="428" r="2.3" fill="#e7dfcf" opacity="0.05"/><circle cx="219" cy="481" r="0.3" fill="#e7dfcf" opacity="0.06"/><circle cx="316" cy="534" r="1.3" fill="#e7dfcf" opacity="0.07"/><circle cx="413" cy="587" r="2.3" fill="#e7dfcf" opacity="0.08"/><circle cx="510" cy="640" r="0.3" fill="#e7dfcf" opacity="0.04"/><circle cx="607" cy="693" r="1.3" fill="#e7dfcf" opacity="0.05"/><circle cx="704" cy="746" r="2.3" fill="#e7dfcf" opacity="0.06"/><circle cx="1" cy="799" r="0.3" fill="#e7dfcf" opacity="0.07"/><circle cx="98" cy="852" r="1.3" fill="#e7dfcf" opacity="0.08"/><circle cx="195" cy="905" r="2.3" fill="#e7dfcf" opacity="0.04"/><circle cx="292" cy="8" r="0.3" fill="#e7dfcf" opacity="0.05"/><circle cx="389" cy="61" r="1.3" fill="#e7dfcf" opacity="0.06"/><circle cx="486" cy="114" r="2.3" fill="#e7dfcf" opacity="0.07"/><circle cx="583" cy="167" r="0.3" fill="#e7dfcf" opacity="0.08"/><circle cx="680" cy="220" r="1.3" fill="#e7dfcf" opacity="0.04"/><circle cx="777" cy="273" r="2.3" fill="#e7dfcf" opacity="0.05"/><circle cx="74" cy="326" r="0.3" fill="#e7dfcf" opacity="0.06"/><circle cx="171" cy="379" r="1.3" fill="#e7dfcf" opacity="0.07"/><circle cx="268" cy="432" r="2.3" fill="#e7dfcf" opacity="0.08"/><circle cx="365" cy="485" r="0.3" fill="#e7dfcf" opacity="0.04"/><circle cx="462" cy="538" r="1.3" fill="#e7dfcf" opacity="0.05"/><circle cx="559" cy="591" r="2.3" fill="#e7dfcf" opacity="0.06"/><circle cx="656" cy="644" r="0.3" fill="#e7dfcf" opacity="0.07"/><circle cx="753" cy="697" r="1.3" fill="#e7dfcf" opacity="0.08"/><circle cx="50" cy="750" r="2.3" fill="#e7dfcf" opacity="0.04"/><circle cx="147" cy="803" r="0.3" fill="#e7dfcf" opacity="0.05"/><circle cx="244" cy="856" r="1.3" fill="#e7dfcf" opacity="0.06"/><circle cx="341" cy="909" r="2.3" fill="#e7dfcf" opacity="0.07"/><circle cx="438" cy="12" r="0.3" fill="#e7dfcf" opacity="0.08"/><circle cx="535" cy="65" r="1.3" fill="#e7dfcf" opacity="0.04"/><circle cx="632" cy="118" r="2.3" fill="#e7dfcf" opacity="0.05"/><circle cx="729" cy="171" r="0.3" fill="#e7dfcf" opacity="0.06"/><circle cx="26" cy="224" r="1.3" fill="#e7dfcf" opacity="0.07"/><circle cx="123" cy="277" r="2.3" fill="#e7dfcf" opacity="0.08"/><circle cx="220" cy="330" r="0.3" fill="#e7dfcf" opacity="0.04"/><circle cx="317" cy="383" r="1.3" fill="#e7dfcf" opacity="0.05"/><circle cx="414" cy="436" r="2.3" fill="#e7dfcf" opacity="0.06"/><circle cx="511" cy="489" r="0.3" fill="#e7dfcf" opacity="0.07"/><circle cx="608" cy="542" r="1.3" fill="#e7dfcf" opacity="0.08"/><circle cx="705" cy="595" r="2.3" fill="#e7dfcf" opacity="0.04"/><circle cx="2" cy="648" r="0.3" fill="#e7dfcf" opacity="0.05"/><circle cx="99" cy="701" r="1.3" fill="#e7dfcf" opacity="0.06"/><circle cx="196" cy="754" r="2.3" fill="#e7dfcf" opacity="0.07"/><circle cx="293" cy="807" r="0.3" fill="#e7dfcf" opacity="0.08"/><circle cx="390" cy="860" r="1.3" fill="#e7dfcf" opacity="0.04"/><circle cx="487" cy="913" r="2.3" fill="#e7dfcf" opacity="0.05"/><circle cx="584" cy="16" r="0.3" fill="#e7dfcf" opacity="0.06"/><circle cx="681" cy="69" r="1.3" fill="#e7dfcf" opacity="0.07"/><circle cx="778" cy="122" r="2.3" fill="#e7dfcf" opacity="0.08"/><circle cx="75" cy="175" r="0.3" fill="#e7dfcf" opacity="0.04"/><circle cx="172" cy="228" r="1.3" fill="#e7dfcf" opacity="0.05"/><circle cx="269" cy="281" r="2.3" fill="#e7dfcf" opacity="0.06"/><circle cx="366" cy="334" r="0.3" fill="#e7dfcf" opacity="0.07"/><circle cx="463" cy="387" r="1.3" fill="#e7dfcf" opacity="0.08"/>
  <text x="50%" y="48%" text-anchor="middle" font-family="serif" font-size="360" fill="#e7dfcf" fill-opacity="0.85" dominant-baseline="middle">ᛈ</text>
</svg>