<svg xmlns="http://www.w3.org/2000/svg" viewBox="0 0 800 1200" width="800" height="1200">
  <defs>
    <radialGradient id="g" cx="50%" cy="40%" r="70%">
      <stop offset="0%" stop-color="#7a1d1d" stop-opacity="0.18"/>
      <stop offset="60%" stop-color="#1a1714" stop-opacity="1"/>
      <stop offset="100%" stop-color="#000" stop-opacity="1"/>
    </radialGradient>
  </defs>
  <rect width="800" height="1200" fill="url(#g)"/>
  <line x1="80" y1="171.42857142857142" x2="720" y2="171.42857142857142" stroke="#e7dfcf" stroke-opacity="0.06" stroke-width="0.5"/><line x1="80" y1="342.85714285714283" x2="720" y2="342.85714285714283" stroke="#e7dfcf" stroke-opacity="0.06" stroke-width="0.5"/><line x1="80" y1="514.2857142857142" x2="720" y2="514.2857142857142" stroke="#e7dfcf" stroke-opacity="0.06" stroke-width="0.5"/><line x1="80" y1="685.7142857142857" x2="720" y2="685.7142857142857" stroke="#e7dfcf" stroke-opacity="0.06" stroke-width="0.5"/><line x1="80" y1="857.1428571428571" x2="720" y2="857.1428571428571" stroke="#e7dfcf" stroke-opacity="0.06" stroke-width="0.5"/><line x1="80" y1="1028.5714285714284" x2="720" y2="1028.5714285714284" stroke="#e7dfcf" stroke-opacity="0.06" stroke-width="0.5"/>
  <circle cx="0" cy="0" r="0.3" fill="#e7dfcf" opacity="0.04"/><circle cx="97" cy="53" r="1.3" fill="#e7dfcf" opacity="0.05"/><circle cx="194" cy="106" r="2.3" fill="#e7dfcf" opacity="0.06"/><circle cx="291" cy="159" r="0.3" fill="#e7dfcf" opacity="0.07"/><circle cx="388" cy="212" r="1.3" fill="#e7dfcf" opacity="0.08"/><circle cx="485" cy="265" r="2.3" fill="#e7dfcf" opacity="0.04"/><circle cx="582" cy="318" r="0.3" fill="#e7dfcf" opacity="0.05"/><circle cx="679" cy="371" r="1.3" fill="#e7dfcf" opacity="0.06"/><circle cx="776" cy="424" r="2.3" fill="#e7dfcf" opacity="0.07"/><circle cx="73" cy="477" r="0.3" fill="#e7dfcf" opacity="0.08"/><circle cx="170" cy="530" r="1.3" fill="#e7dfcf" opacity="0.04"/><circle cx="267" cy="583" r="2.3" fill="#e7dfcf" opacity="0.05"/><circle cx="364" cy="636" r="0.3" fill="#e7dfcf" opacity="0.06"/><circle cx="461" cy="689" r="1.3" fill="#e7dfcf" opacity="0.07"/><circle cx="558" cy="742" r="2.3" fill="#e7dfcf" opacity="0.08"/><circle cx="655" cy="795" r="0.3" fill="#e7dfcf" opacity="0.04"/><circle cx="752" cy="848" r="1.3" fill="#e7dfcf" opacity="0.05"/><circle cx="49" cy="901" r="2.3" fill="#e7dfcf" opacity="0.06"/><circle cx="146" cy="954" r="0.3" fill="#e7dfcf" opacity="0.07"/><circle cx="243" cy="1007" r="1.3" fill="#e7dfcf" opacity="0.08"/><circle cx="340" cy="1060" r="2.3" fill="#e7dfcf" opacity="0.04"/><circle cx="437" cy="1113" r="0.3" fill="#e7dfcf" opacity="0.05"/><circle cx="534" cy="1166" r="1.3" fill="#e7dfcf" opacity="0.06"/><circle cx="631" cy="19" r="2.3" fill="#e7dfcf" opacity="0.07"/><circle cx="728" cy="72" r="0.3" fill="#e7dfcf" opacity="0.08"/><circle cx="25" cy="125" r="1.3" fill="#e7dfcf" opacity="0.04"/><circle cx="122" cy="178" r="2.3" fill="#e7dfcf" opacity="0.05"/><circle cx="219" cy="231" r="0.3" fill="#e7dfcf" opacity="0.06"/><circle cx="316" cy="284" r="1.3" fill="#e7dfcf" opacity="0.07"/><circle cx="413" cy="337" r="2.3" fill="#e7dfcf" opacity="0.08"/><circle cx="510" cy="390" r="0.3" fill="#e7dfcf" opacity="0.04"/><circle cx="607" cy="443" r="1.3" fill="#e7dfcf" opacity="0.05"/><circle cx="704" cy="496" r="2.3" fill="#e7dfcf" opacity="0.06"/><circle cx="1" cy="549" r="0.3" fill="#e7dfcf" opacity="0.07"/><circle cx="98" cy="602" r="1.3" fill="#e7dfcf" opacity="0.08"/><circle cx="195" cy="655" r="2.3" fill="#e7dfcf" opacity="0.04"/><circle cx="292" cy="708" r="0.3" fill="#e7dfcf" opacity="0.05"/><circle cx="389" cy="761" r="1.3" fill="#e7dfcf" opacity="0.06"/><circle cx="486" cy="814" r="2.3" fill="#e7dfcf" opacity="0.07"/><circle cx="583" cy="867" r="0.3" fill="#e7dfcf" opacity="0.08"/><circle cx="680" cy="920" r="1.3" fill="#e7dfcf" opacity="0.04"/><circle cx="777" cy="973" r="2.3" fill="#e7dfcf" opacity="0.05"/><circle cx="74" cy="1026" r="0.3" fill="#e7dfcf" opacity="0.06"/><circle cx="171" cy="1079" r="1.3" fill="#e7dfcf" opacity="0.07"/><circle cx="268" cy="1132" r="2.3" fill="#e7dfcf" opacity="0.08"/><circle cx="365" cy="1185" r="0.3" fill="#e7dfcf" opacity="0.04"/><circle cx="462" cy="38" r="1.3" fill="#e7dfcf" opacity="0.05"/><circle cx="559" cy="91" r="2.3" fill="#e7dfcf" opacity="0.06"/><circle cx="656" cy="144" r="0.3" fill="#e7dfcf" opacity="0.07"/><circle cx="753" cy="197" r="1.3" fill="#e7dfcf" opacity="0.08"/><circle cx="50" cy="250" r="2.3" fill="#e7dfcf" opacity="0.04"/><circle cx="147" cy="303" r="0.3" fill="#e7dfcf" opacity="0.05"/><circle cx="244" cy="356" r="1.3" fill="#e7dfcf" opacity="0.06"/><circle cx="341" cy="409" r="2.3" fill="#e7dfcf" opacity="0.07"/><circle cx="438" cy="462" r="0.3" fill="#e7dfcf" opacity="0.08"/><circle cx="535" cy="515" r="1.3" fill="#e7dfcf" opacity="0.04"/><circle cx="632" cy="568" r="2.3" fill="#e7dfcf" opacity="0.05"/><circle cx="729" cy="621" r="0.3" fill="#e7dfcf" opacity="0.06"/><circle cx="26" cy="674" r="1.3" fill="#e7dfcf" opacity="0.07"/><circle cx="123" cy="727" r="2.3" fill="#e7dfcf" opacity="0.08"/><circle cx="220" cy="780" r="0.3" fill="#e7dfcf" opacity="0.04"/><circle cx="317" cy="833" r="1.3" fill="#e7dfcf" opacity="0.05"/><circle cx="414" cy="886" r="2.3" fill="#e7dfcf" opacity="0.06"/><circle cx="511" cy="939" r="0.3" fill="#e7dfcf" opacity="0.07"/><circle cx="608" cy="992" r="1.3" fill="#e7dfcf" opacity="0.08"/><circle cx="705" cy="1045" r="2.3" fill="#e7dfcf" opacity="0.04"/><circle cx="2" cy="1098" r="0.3" fill="#e7dfcf" opacity="0.05"/><circle cx="99" cy="1151" r="1.3" fill="#e7dfcf" opacity="0.06"/><circle cx="196" cy="4" r="2.3" fill="#e7dfcf" opacity="0.07"/><circle cx="293" cy="57" r="0.3" fill="#e7dfcf" opacity="0.08"/><circle cx="390" cy="110" r="1.3" fill="#e7dfcf" opacity="0.04"/><circle cx="487" cy="163" r="2.3" fill="#e7dfcf" opacity="0.05"/><circle cx="584" cy="216" r="0.3" fill="#e7dfcf" opacity="0.06"/><circle cx="681" cy="269" r="1.3" fill="#e7dfcf" opacity="0.07"/><circle cx="778" cy="322" r="2.3" fill="#e7dfcf" opacity="0.08"/><circle cx="75" cy="375" r="0.3" fill="#e7dfcf" opacity="0.04"/><circle cx="172" cy="428" r="1.3" fill="#e7dfcf" opacity="0.05"/><circle cx="269" cy="481" r="2.3" fill="#e7dfcf" opacity="0.06"/><circle cx="366" cy="534" r="0.3" fill="#e7dfcf" opacity="0.07"/><circle cx="463" cy="587" r="1.3" fill="#e7dfcf" opacity="0.08"/>
  <text x="50%" y="48%" text-anchor="middle" font-family="serif" font-size="360" fill="#e7dfcf" fill-opacity="0.85" dominant-baseline="middle">ᛜ</text>
</svg>